 <svg  version="1.0" xmlns="http://www.w3.org/2000/svg"  width="536.000000pt" height="346.000000pt" viewBox="0 0 536.000000 346.000000"  preserveAspectRatio="xMidYMid meet">  <g transform="translate(0.000000,346.000000) scale(0.100000,-0.100000)" fill="#1b1b1b" stroke="none"> <path d="M1804 3427 c14 -18 38 -60 53 -92 26 -55 28 -70 28 -180 0 -114 -2 -124 -31 -186 l-31 -65 19 -50 c41 -103 34 -240 -18 -349 -68 -144 -236 -255 -388 -255 -53 0 -54 0 -60 -34 -4 -19 -22 -66 -42 -105 -37 -74 -116 -156 -183 -190 -130 -67 -313 -67 -427 -1 -30 17 -33 17 -100 -6 -127 -43 -275 -26 -388 46 -60 38 -64 36 -128 -87 -106 -202 -130 -413 -73 -634 66 -256 278 -490 529 -584 103 -39 195 -55 311 -55 236 0 440 81 607 242 l56 55 94 -91 c146 -142 291 -212 486 -235 246 -30 485 53 669 231 l71 70 59 -48 c120 -98 242 -160 388 -200 56 -15 103 -19 240 -18 156 0 178 3 259 28 333 101 576 350 668 683 32 117 32 364 0 482 -95 348 -371 615 -720 697 -37 9 -118 19 -181 23 l-114 6 -18 52 c-91 269 -322 485 -604 565 -103 29 -334 32 -429 6 l-58 -17 -72 73 c-114 117 -231 187 -382 231 -115 33 -121 33 -90 -8z"/> </g> </svg> 